Format                           : AVI
Format/Info                      : Audio Video Interleave
File size                        : 1.54 GiB
Duration                         : 1h 34mn
Overall bit rate                 : 2 330 Kbps
Writing application              : VirtualDubMod 1.5.10.3 | www.virtualdub-fr.org || (build 2550/release)
Writing library                  : VirtualDub build 32839/release

Video
ID                               : 0
Format                           : MPEG-4 Visual
Format profile                   : Advanced Simple@L5
Format settings, BVOP            : Yes
Format settings, QPel            : No
Format settings, GMC             : No warppoints
Format settings, Matrix          : Custom
Codec ID                         : XVID
Codec ID/Hint                    : XviD
Duration                         : 1h 34mn
Bit rate                         : 1 873 Kbps
Width                            : 720 pixels
Height                           : 304 pixels
Display aspect ratio             : 2.35:1
Frame rate                       : 23.976 fps
Color space                      : YUV
Chroma subsampling               : 4:2:0
Bit depth                        : 8 bits
Scan type                        : Progressive
Bits/(Pixel*Frame)               : 0.357
Stream size                      : 1.24 GiB (80%)
Writing library                  : XviD 1.2.1 (UTC 2008-12-04)

Audio
ID                               : 1
Format                           : AC-3
Format/Info                      : Audio Coding 3
Mode extension                   : CM (complete main)
Codec ID                         : 2000
Duration                         : 1h 34mn
Bit rate mode                    : Constant
Bit rate                         : 448 Kbps
Channel(s)                       : 6 channels
Channel positions                : Front: L C R, Side: L R, LFE
Sampling rate                    : 48.0 KHz
Bit depth                        : 16 bits
Stream size                      : 303 MiB (19%)
Alignment                        : Split accross interleaves
Interleave, duration             : 42 ms (1.00 video frame)
Interleave, preload duration     : 500 ms



 
http://www.imdb.com/title/tt1032751/







Users: 6.2/10 (1,748 votes) 43 reviews | Critics: 47 reviews Metascore: 45/100 (based on 11 reviews from Metacritic.com)

A warrior-assassin is forced to hide in a small town in the American Badlands after refusing a mission.
Director:
Sngmoo Lee
Writer:
Sngmoo Lee, and 1 more credit »
Stars:
Dong-gun Jang, Kate Bosworth and Geoffrey Rush 







 
http://img19.imageshack.us/img19/8067/vlcsnap2011032610h08m17.png 
http://img41.imageshack.us/img41/8726/vlcsnap2011032610h07m07.png 
http://img202.imageshack.us/img202/181/vlcsnap2011032610h07m14.png 
http://img858.imageshack.us/img858/1228/vlcsnap2011032610h07m51.png


Source used 


The Warriors Way 2010 720p BluRay X264-AMIABLE ............. Thanks 

Done a 720p of this as well coming later 




Greetz to Imagine ,Flawl3ss,DiLLoN,BDK,NOiR,TOXiCiNK,THC,Ez,Rx,



